<svg xmlns="http://www.w3.org/2000/svg" xmlns:xlink="http://www.w3.org/1999/xlink" width="500" zoomAndPan="magnify" viewBox="0 0 375 374.999991" height="500" preserveAspectRatio="xMidYMid meet" version="1.0"><defs><clipPath id="38e329a607"><path d="M 127 82.15625 L 248 82.15625 L 248 89 L 127 89 Z M 127 82.15625 " clip-rule="nonzero"/></clipPath><clipPath id="c007f9e082"><path d="M 130 283 L 245 283 L 245 292.90625 L 130 292.90625 Z M 130 283 " clip-rule="nonzero"/></clipPath><clipPath id="0474cade1a"><path d="M 99.40625 250 L 129 250 L 129 287 L 99.40625 287 Z M 99.40625 250 " clip-rule="nonzero"/></clipPath><clipPath id="499efc6b89"><path d="M 246 250 L 275.65625 250 L 275.65625 287 L 246 287 Z M 246 250 " clip-rule="nonzero"/></clipPath></defs><path fill="#4ac15e" d="M 184.738281 156.191406 L 184.738281 94.386719 L 131.476562 94.386719 L 131.476562 156.1875 L 184.738281 156.1875 Z M 168.683594 110.324219 C 168.683594 116.15625 163.941406 120.90625 158.109375 120.90625 C 152.273438 120.90625 147.527344 116.15625 147.527344 110.324219 C 147.527344 104.492188 152.273438 99.742188 158.109375 99.742188 C 163.941406 99.742188 168.683594 104.492188 168.683594 110.324219 Z M 158.109375 122.925781 C 167.742188 122.925781 175.578125 130.765625 175.578125 140.398438 L 175.578125 148.078125 C 175.578125 149.601562 174.34375 150.835938 172.820312 150.835938 L 143.394531 150.835938 C 141.875 150.835938 140.636719 149.601562 140.636719 148.078125 L 140.636719 140.398438 C 140.636719 130.765625 148.472656 122.925781 158.109375 122.925781 Z M 158.109375 122.925781 " fill-opacity="1" fill-rule="evenodd"/><path fill="#4ac15e" d="M 158.109375 115.382812 C 160.898438 115.382812 163.167969 113.113281 163.167969 110.320312 C 163.167969 107.523438 160.898438 105.253906 158.109375 105.253906 C 155.316406 105.253906 153.042969 107.523438 153.042969 110.320312 C 153.042969 113.113281 155.316406 115.382812 158.109375 115.382812 Z M 158.109375 115.382812 " fill-opacity="1" fill-rule="evenodd"/><path fill="#4ac15e" d="M 170.0625 140.398438 C 170.0625 133.808594 164.699219 128.441406 158.109375 128.441406 C 151.515625 128.441406 146.152344 133.808594 146.152344 140.398438 L 146.152344 145.320312 L 170.0625 145.320312 Z M 170.0625 140.398438 " fill-opacity="1" fill-rule="evenodd"/><path fill="#4ac15e" d="M 190.253906 94.386719 L 190.253906 156.1875 L 243.519531 156.1875 L 243.519531 94.386719 Z M 216.886719 120.902344 C 211.054688 120.902344 206.308594 116.152344 206.308594 110.320312 C 206.308594 104.488281 211.054688 99.738281 216.886719 99.738281 C 222.71875 99.738281 227.46875 104.488281 227.46875 110.320312 C 227.46875 116.152344 222.71875 120.902344 216.886719 120.902344 Z M 199.421875 140.398438 C 199.421875 130.765625 207.257812 122.925781 216.886719 122.925781 C 226.515625 122.925781 234.359375 130.765625 234.359375 140.398438 L 234.359375 148.078125 C 234.359375 149.601562 233.121094 150.835938 231.601562 150.835938 L 202.179688 150.835938 C 200.652344 150.835938 199.421875 149.601562 199.421875 148.078125 Z M 199.421875 140.398438 " fill-opacity="1" fill-rule="evenodd"/><path fill="#4ac15e" d="M 211.824219 110.324219 C 211.824219 113.117188 214.097656 115.390625 216.886719 115.390625 C 219.675781 115.390625 221.953125 113.117188 221.953125 110.324219 C 221.953125 107.53125 219.679688 105.257812 216.886719 105.257812 C 214.09375 105.257812 211.824219 107.53125 211.824219 110.324219 Z M 211.824219 110.324219 " fill-opacity="1" fill-rule="evenodd"/><path fill="#4ac15e" d="M 216.886719 128.441406 C 210.296875 128.441406 204.9375 133.808594 204.9375 140.398438 L 204.9375 145.320312 L 228.84375 145.320312 L 228.84375 140.398438 C 228.84375 133.808594 223.476562 128.441406 216.886719 128.441406 Z M 216.886719 128.441406 " fill-opacity="1" fill-rule="evenodd"/><g clip-path="url(#38e329a607)"><path fill="#4ac15e" d="M 127.140625 82.230469 L 247.851562 82.230469 L 247.851562 88.878906 L 127.140625 88.878906 Z M 127.140625 82.230469 " fill-opacity="1" fill-rule="nonzero"/></g><path fill="#4ac15e" d="M 219.902344 211.742188 L 155.09375 211.742188 L 131.882812 278.363281 L 243.113281 278.363281 Z M 219.902344 211.742188 " fill-opacity="1" fill-rule="evenodd"/><g clip-path="url(#c007f9e082)"><path fill="#4ac15e" d="M 130.753906 283.875 L 244.238281 283.875 L 244.238281 292.742188 L 130.753906 292.742188 Z M 130.753906 283.875 " fill-opacity="1" fill-rule="nonzero"/></g><g clip-path="url(#0474cade1a)"><path fill="#4ac15e" d="M 125.394531 280.210938 L 128.625 270.9375 L 128.625 265.511719 C 128.625 257.464844 122.074219 250.910156 114.019531 250.910156 C 105.964844 250.910156 99.417969 257.464844 99.417969 265.511719 L 99.417969 286.378906 L 125.238281 286.378906 L 125.238281 281.117188 C 125.238281 280.800781 125.292969 280.496094 125.394531 280.210938 Z M 125.394531 280.210938 " fill-opacity="1" fill-rule="evenodd"/></g><path fill="#4ac15e" d="M 114.019531 237.804688 C 119.589844 237.804688 124.117188 233.273438 124.117188 227.707031 C 124.117188 222.140625 119.589844 217.609375 114.019531 217.609375 C 108.449219 217.609375 103.921875 222.140625 103.921875 227.707031 C 103.921875 233.273438 108.453125 237.804688 114.019531 237.804688 Z M 114.019531 237.804688 " fill-opacity="1" fill-rule="evenodd"/><path fill="#4ac15e" d="M 121.644531 214.085938 C 126.40625 216.761719 129.632812 221.863281 129.632812 227.707031 C 129.632812 229.382812 129.367188 230.996094 128.875 232.515625 L 142.015625 232.515625 L 145.054688 223.804688 L 145.054688 215.53125 C 145.054688 209.054688 139.78125 203.78125 133.300781 203.78125 C 127.3125 203.78125 122.355469 208.292969 121.644531 214.09375 Z M 121.644531 214.085938 " fill-opacity="1" fill-rule="evenodd"/><path fill="#4ac15e" d="M 133.300781 190.742188 C 137.703125 190.742188 141.285156 187.160156 141.285156 182.757812 C 141.285156 178.355469 137.703125 174.773438 133.300781 174.773438 C 128.898438 174.773438 125.316406 178.355469 125.316406 182.757812 C 125.316406 187.160156 128.898438 190.742188 133.300781 190.742188 Z M 133.300781 190.742188 " fill-opacity="1" fill-rule="evenodd"/><path fill="#4ac15e" d="M 241.695312 203.777344 C 235.210938 203.777344 229.941406 209.050781 229.941406 215.527344 L 229.941406 223.800781 L 232.980469 232.511719 L 246.121094 232.511719 C 245.628906 230.992188 245.359375 229.378906 245.359375 227.703125 C 245.359375 221.859375 248.589844 216.757812 253.351562 214.082031 C 252.636719 208.28125 247.683594 203.773438 241.695312 203.773438 Z M 241.695312 203.777344 " fill-opacity="1" fill-rule="evenodd"/><path fill="#4ac15e" d="M 233.710938 182.757812 C 233.710938 187.160156 237.289062 190.742188 241.695312 190.742188 C 246.097656 190.742188 249.675781 187.160156 249.675781 182.757812 C 249.675781 178.355469 246.097656 174.773438 241.695312 174.773438 C 237.289062 174.773438 233.710938 178.355469 233.710938 182.757812 Z M 233.710938 182.757812 " fill-opacity="1" fill-rule="evenodd"/><path fill="#4ac15e" d="M 260.976562 217.609375 C 255.40625 217.609375 250.878906 222.140625 250.878906 227.707031 C 250.878906 233.273438 255.40625 237.804688 260.976562 237.804688 C 266.546875 237.804688 271.078125 233.273438 271.078125 227.707031 C 271.078125 222.140625 266.535156 217.609375 260.976562 217.609375 Z M 260.976562 217.609375 " fill-opacity="1" fill-rule="evenodd"/><g clip-path="url(#499efc6b89)"><path fill="#4ac15e" d="M 275.582031 265.511719 C 275.582031 257.464844 269.03125 250.910156 260.976562 250.910156 C 252.917969 250.910156 246.367188 257.464844 246.367188 265.511719 L 246.367188 270.9375 L 249.597656 280.210938 C 249.699219 280.496094 249.753906 280.800781 249.753906 281.117188 L 249.753906 286.378906 L 275.582031 286.378906 Z M 275.582031 265.511719 " fill-opacity="1" fill-rule="evenodd"/></g></svg>