<svg xmlns="http://www.w3.org/2000/svg" xmlns:xlink="http://www.w3.org/1999/xlink" width="500" zoomAndPan="magnify" viewBox="0 0 375 374.999991" height="500" preserveAspectRatio="xMidYMid meet" version="1.0"><defs><clipPath id="93c81b162c"><path d="M 115 231 L 260 231 L 260 265.117188 L 115 265.117188 Z M 115 231 " clip-rule="nonzero"/></clipPath><clipPath id="87fa4b3d23"><path d="M 99.40625 109.867188 L 275.65625 109.867188 L 275.65625 185 L 99.40625 185 Z M 99.40625 109.867188 " clip-rule="nonzero"/></clipPath></defs><path fill="#4ac15e" d="M 253.285156 173.664062 L 121.75 173.664062 C 121.355469 173.667969 120.964844 173.707031 120.582031 173.78125 C 120.195312 173.859375 119.820312 173.972656 119.457031 174.125 C 119.09375 174.277344 118.746094 174.460938 118.417969 174.679688 C 118.09375 174.898438 117.789062 175.148438 117.511719 175.425781 C 117.234375 175.703125 116.984375 176.007812 116.765625 176.332031 C 116.546875 176.660156 116.363281 177.007812 116.210938 177.371094 C 116.058594 177.734375 115.945312 178.109375 115.867188 178.496094 C 115.792969 178.878906 115.753906 179.269531 115.753906 179.664062 L 115.753906 201.007812 C 115.753906 201.402344 115.792969 201.789062 115.867188 202.175781 C 115.945312 202.5625 116.058594 202.9375 116.210938 203.300781 C 116.363281 203.664062 116.546875 204.011719 116.765625 204.339844 C 116.984375 204.664062 117.234375 204.96875 117.511719 205.246094 C 117.789062 205.523438 118.09375 205.773438 118.417969 205.992188 C 118.746094 206.210938 119.09375 206.394531 119.457031 206.546875 C 119.820312 206.699219 120.195312 206.8125 120.582031 206.890625 C 120.964844 206.964844 121.355469 207.003906 121.75 207.003906 L 253.285156 207.003906 C 253.679688 207.003906 254.066406 206.964844 254.453125 206.890625 C 254.839844 206.8125 255.214844 206.699219 255.578125 206.546875 C 255.941406 206.394531 256.289062 206.210938 256.613281 205.992188 C 256.941406 205.773438 257.246094 205.523438 257.523438 205.246094 C 257.800781 204.96875 258.050781 204.664062 258.269531 204.339844 C 258.488281 204.011719 258.671875 203.664062 258.824219 203.300781 C 258.972656 202.9375 259.089844 202.5625 259.164062 202.175781 C 259.242188 201.789062 259.28125 201.402344 259.28125 201.007812 L 259.28125 179.664062 C 259.28125 179.269531 259.242188 178.878906 259.164062 178.496094 C 259.089844 178.109375 258.972656 177.734375 258.824219 177.371094 C 258.671875 177.007812 258.488281 176.660156 258.269531 176.332031 C 258.050781 176.007812 257.800781 175.703125 257.523438 175.425781 C 257.246094 175.148438 256.941406 174.898438 256.613281 174.679688 C 256.289062 174.460938 255.941406 174.277344 255.578125 174.125 C 255.214844 173.972656 254.839844 173.859375 254.453125 173.78125 C 254.066406 173.707031 253.679688 173.667969 253.285156 173.664062 Z M 130.574219 193.898438 C 130.574219 194.320312 130.492188 194.722656 130.332031 195.113281 C 130.171875 195.5 129.941406 195.84375 129.644531 196.140625 C 129.347656 196.441406 129.003906 196.667969 128.613281 196.832031 C 128.226562 196.992188 127.820312 197.070312 127.398438 197.070312 C 126.980469 197.070312 126.574219 196.992188 126.183594 196.832031 C 125.796875 196.667969 125.453125 196.441406 125.15625 196.140625 C 124.859375 195.84375 124.628906 195.5 124.46875 195.113281 C 124.304688 194.722656 124.226562 194.320312 124.226562 193.898438 L 124.226562 186.75 C 124.226562 186.328125 124.304688 185.925781 124.46875 185.535156 C 124.628906 185.144531 124.859375 184.804688 125.15625 184.503906 C 125.453125 184.207031 125.796875 183.976562 126.183594 183.816406 C 126.574219 183.65625 126.980469 183.574219 127.398438 183.574219 C 127.820312 183.574219 128.226562 183.65625 128.613281 183.816406 C 129.003906 183.976562 129.347656 184.207031 129.644531 184.503906 C 129.941406 184.804688 130.171875 185.144531 130.332031 185.535156 C 130.492188 185.925781 130.574219 186.328125 130.574219 186.75 Z M 145.710938 193.898438 C 145.710938 194.320312 145.632812 194.722656 145.46875 195.113281 C 145.308594 195.5 145.078125 195.84375 144.78125 196.140625 C 144.484375 196.441406 144.140625 196.667969 143.753906 196.832031 C 143.363281 196.992188 142.957031 197.070312 142.539062 197.070312 C 142.117188 197.070312 141.710938 196.992188 141.324219 196.832031 C 140.933594 196.667969 140.589844 196.441406 140.292969 196.140625 C 139.996094 195.84375 139.765625 195.5 139.605469 195.113281 C 139.445312 194.722656 139.363281 194.320312 139.363281 193.898438 L 139.363281 186.75 C 139.363281 186.328125 139.445312 185.925781 139.605469 185.535156 C 139.765625 185.144531 139.996094 184.804688 140.292969 184.503906 C 140.589844 184.207031 140.933594 183.976562 141.324219 183.816406 C 141.710938 183.65625 142.117188 183.574219 142.539062 183.574219 C 142.957031 183.574219 143.363281 183.65625 143.753906 183.816406 C 144.140625 183.976562 144.484375 184.207031 144.78125 184.503906 C 145.078125 184.804688 145.308594 185.144531 145.46875 185.535156 C 145.632812 185.925781 145.710938 186.328125 145.710938 186.75 Z M 160.851562 193.898438 C 160.851562 194.320312 160.769531 194.722656 160.609375 195.113281 C 160.449219 195.5 160.21875 195.84375 159.921875 196.140625 C 159.625 196.441406 159.28125 196.667969 158.890625 196.832031 C 158.503906 196.992188 158.097656 197.070312 157.675781 197.070312 C 157.253906 197.070312 156.851562 196.992188 156.460938 196.832031 C 156.074219 196.667969 155.730469 196.441406 155.433594 196.140625 C 155.136719 195.84375 154.90625 195.5 154.746094 195.113281 C 154.582031 194.722656 154.503906 194.320312 154.503906 193.898438 L 154.503906 186.75 C 154.503906 186.328125 154.582031 185.925781 154.746094 185.535156 C 154.90625 185.144531 155.136719 184.804688 155.433594 184.503906 C 155.730469 184.207031 156.074219 183.976562 156.460938 183.816406 C 156.851562 183.65625 157.253906 183.574219 157.675781 183.574219 C 158.097656 183.574219 158.503906 183.65625 158.890625 183.816406 C 159.28125 183.976562 159.625 184.207031 159.921875 184.503906 C 160.21875 184.804688 160.449219 185.144531 160.609375 185.535156 C 160.769531 185.925781 160.851562 186.328125 160.851562 186.75 Z M 218.769531 199.003906 C 218.199219 199.003906 217.636719 198.949219 217.074219 198.835938 C 216.515625 198.726562 215.972656 198.5625 215.445312 198.34375 C 214.921875 198.125 214.417969 197.855469 213.945312 197.539062 C 213.472656 197.222656 213.03125 196.863281 212.628906 196.460938 C 212.226562 196.058594 211.867188 195.617188 211.550781 195.144531 C 211.234375 194.671875 210.964844 194.171875 210.746094 193.644531 C 210.527344 193.117188 210.363281 192.574219 210.253906 192.015625 C 210.140625 191.453125 210.085938 190.890625 210.085938 190.320312 C 210.085938 189.75 210.140625 189.183594 210.253906 188.625 C 210.363281 188.066406 210.527344 187.523438 210.746094 186.996094 C 210.964844 186.46875 211.234375 185.96875 211.550781 185.496094 C 211.867188 185.019531 212.226562 184.582031 212.628906 184.179688 C 213.03125 183.777344 213.472656 183.417969 213.945312 183.097656 C 214.417969 182.78125 214.921875 182.515625 215.445312 182.296875 C 215.972656 182.078125 216.515625 181.914062 217.074219 181.804688 C 217.636719 181.691406 218.199219 181.636719 218.769531 181.636719 C 219.339844 181.636719 219.90625 181.691406 220.464844 181.804688 C 221.023438 181.914062 221.566406 182.078125 222.09375 182.296875 C 222.621094 182.515625 223.121094 182.78125 223.59375 183.097656 C 224.070312 183.417969 224.507812 183.777344 224.910156 184.179688 C 225.3125 184.582031 225.671875 185.019531 225.992188 185.496094 C 226.308594 185.96875 226.574219 186.46875 226.792969 186.996094 C 227.011719 187.523438 227.175781 188.066406 227.289062 188.625 C 227.398438 189.183594 227.453125 189.75 227.453125 190.320312 C 227.453125 190.890625 227.398438 191.457031 227.289062 192.019531 C 227.175781 192.578125 227.011719 193.121094 226.792969 193.652344 C 226.574219 194.179688 226.308594 194.679688 225.992188 195.15625 C 225.671875 195.632812 225.3125 196.070312 224.910156 196.476562 C 224.503906 196.878906 224.066406 197.242188 223.589844 197.558594 C 223.113281 197.875 222.613281 198.144531 222.085938 198.363281 C 221.558594 198.582031 221.011719 198.746094 220.453125 198.855469 C 219.890625 198.96875 219.324219 199.023438 218.753906 199.023438 Z M 242.140625 199.003906 C 241.570312 199.003906 241.003906 198.949219 240.445312 198.835938 C 239.886719 198.726562 239.34375 198.5625 238.816406 198.34375 C 238.289062 198.125 237.789062 197.855469 237.316406 197.539062 C 236.839844 197.222656 236.402344 196.863281 236 196.460938 C 235.597656 196.058594 235.238281 195.617188 234.917969 195.144531 C 234.601562 194.671875 234.335938 194.171875 234.117188 193.644531 C 233.898438 193.117188 233.734375 192.574219 233.625 192.015625 C 233.511719 191.453125 233.457031 190.890625 233.457031 190.320312 C 233.457031 189.75 233.511719 189.183594 233.625 188.625 C 233.734375 188.066406 233.898438 187.523438 234.117188 186.996094 C 234.335938 186.46875 234.601562 185.96875 234.917969 185.496094 C 235.238281 185.019531 235.597656 184.582031 236 184.179688 C 236.402344 183.777344 236.839844 183.417969 237.316406 183.097656 C 237.789062 182.78125 238.289062 182.515625 238.816406 182.296875 C 239.34375 182.078125 239.886719 181.914062 240.445312 181.804688 C 241.003906 181.691406 241.570312 181.636719 242.140625 181.636719 C 242.710938 181.636719 243.273438 181.691406 243.835938 181.804688 C 244.394531 181.914062 244.9375 182.078125 245.464844 182.296875 C 245.992188 182.515625 246.492188 182.78125 246.964844 183.097656 C 247.4375 183.417969 247.878906 183.777344 248.28125 184.179688 C 248.683594 184.582031 249.042969 185.019531 249.359375 185.496094 C 249.675781 185.96875 249.945312 186.46875 250.164062 186.996094 C 250.382812 187.523438 250.546875 188.066406 250.65625 188.625 C 250.769531 189.183594 250.824219 189.75 250.824219 190.320312 C 250.824219 190.890625 250.769531 191.457031 250.660156 192.019531 C 250.546875 192.578125 250.382812 193.121094 250.164062 193.652344 C 249.945312 194.179688 249.679688 194.679688 249.359375 195.15625 C 249.042969 195.632812 248.683594 196.070312 248.277344 196.476562 C 247.875 196.878906 247.433594 197.242188 246.960938 197.558594 C 246.484375 197.875 245.984375 198.144531 245.457031 198.363281 C 244.925781 198.582031 244.382812 198.746094 243.824219 198.855469 C 243.261719 198.96875 242.695312 199.023438 242.125 199.023438 Z M 242.140625 199.003906 " fill-opacity="1" fill-rule="nonzero"/><g clip-path="url(#93c81b162c)"><path fill="#4ac15e" d="M 253.285156 231.726562 L 121.75 231.726562 C 121.355469 231.726562 120.964844 231.761719 120.582031 231.839844 C 120.195312 231.917969 119.820312 232.03125 119.457031 232.183594 C 119.089844 232.332031 118.746094 232.519531 118.417969 232.738281 C 118.089844 232.957031 117.789062 233.203125 117.511719 233.484375 C 117.230469 233.761719 116.984375 234.0625 116.765625 234.390625 C 116.546875 234.71875 116.359375 235.066406 116.210938 235.429688 C 116.058594 235.792969 115.945312 236.167969 115.867188 236.554688 C 115.789062 236.9375 115.753906 237.328125 115.753906 237.722656 L 115.753906 259.050781 C 115.753906 259.445312 115.789062 259.835938 115.867188 260.21875 C 115.945312 260.605469 116.058594 260.980469 116.210938 261.34375 C 116.359375 261.707031 116.546875 262.054688 116.765625 262.382812 C 116.984375 262.710938 117.230469 263.011719 117.511719 263.289062 C 117.789062 263.570312 118.089844 263.816406 118.417969 264.035156 C 118.746094 264.253906 119.089844 264.441406 119.457031 264.589844 C 119.820312 264.742188 120.195312 264.855469 120.582031 264.933594 C 120.964844 265.007812 121.355469 265.046875 121.75 265.046875 L 253.285156 265.046875 C 253.679688 265.046875 254.066406 265.007812 254.453125 264.933594 C 254.839844 264.855469 255.214844 264.742188 255.578125 264.589844 C 255.941406 264.441406 256.289062 264.253906 256.617188 264.035156 C 256.941406 263.816406 257.246094 263.570312 257.523438 263.289062 C 257.804688 263.011719 258.050781 262.710938 258.269531 262.382812 C 258.488281 262.054688 258.675781 261.707031 258.824219 261.34375 C 258.976562 260.980469 259.089844 260.605469 259.167969 260.21875 C 259.242188 259.835938 259.28125 259.445312 259.28125 259.050781 L 259.28125 237.722656 C 259.28125 237.328125 259.242188 236.9375 259.167969 236.554688 C 259.089844 236.167969 258.976562 235.792969 258.824219 235.429688 C 258.675781 235.066406 258.488281 234.71875 258.269531 234.390625 C 258.050781 234.0625 257.804688 233.761719 257.523438 233.484375 C 257.246094 233.203125 256.941406 232.957031 256.617188 232.738281 C 256.289062 232.519531 255.941406 232.332031 255.578125 232.183594 C 255.214844 232.03125 254.839844 231.917969 254.453125 231.839844 C 254.066406 231.761719 253.679688 231.726562 253.285156 231.726562 Z M 130.574219 251.957031 C 130.574219 252.378906 130.492188 252.78125 130.332031 253.171875 C 130.171875 253.558594 129.941406 253.902344 129.644531 254.203125 C 129.347656 254.5 129.003906 254.726562 128.613281 254.890625 C 128.226562 255.050781 127.820312 255.128906 127.398438 255.128906 C 126.980469 255.128906 126.574219 255.050781 126.183594 254.890625 C 125.796875 254.726562 125.453125 254.5 125.15625 254.203125 C 124.859375 253.902344 124.628906 253.558594 124.46875 253.171875 C 124.304688 252.78125 124.226562 252.378906 124.226562 251.957031 L 124.226562 244.816406 C 124.226562 244.394531 124.304688 243.992188 124.46875 243.601562 C 124.628906 243.214844 124.859375 242.871094 125.15625 242.570312 C 125.453125 242.273438 125.796875 242.046875 126.183594 241.882812 C 126.574219 241.722656 126.980469 241.640625 127.398438 241.640625 C 127.820312 241.640625 128.226562 241.722656 128.613281 241.882812 C 129.003906 242.046875 129.347656 242.273438 129.644531 242.570312 C 129.941406 242.871094 130.171875 243.214844 130.332031 243.601562 C 130.492188 243.992188 130.574219 244.394531 130.574219 244.816406 Z M 145.710938 251.957031 C 145.710938 252.378906 145.632812 252.78125 145.46875 253.171875 C 145.308594 253.558594 145.078125 253.902344 144.78125 254.203125 C 144.484375 254.5 144.140625 254.726562 143.753906 254.890625 C 143.363281 255.050781 142.957031 255.128906 142.539062 255.128906 C 142.117188 255.128906 141.710938 255.050781 141.324219 254.890625 C 140.933594 254.726562 140.589844 254.5 140.292969 254.203125 C 139.996094 253.902344 139.765625 253.558594 139.605469 253.171875 C 139.445312 252.78125 139.363281 252.378906 139.363281 251.957031 L 139.363281 244.816406 C 139.363281 244.394531 139.445312 243.992188 139.605469 243.601562 C 139.765625 243.214844 139.996094 242.871094 140.292969 242.570312 C 140.589844 242.273438 140.933594 242.046875 141.324219 241.882812 C 141.710938 241.722656 142.117188 241.640625 142.539062 241.640625 C 142.957031 241.640625 143.363281 241.722656 143.753906 241.882812 C 144.140625 242.046875 144.484375 242.273438 144.78125 242.570312 C 145.078125 242.871094 145.308594 243.214844 145.46875 243.601562 C 145.632812 243.992188 145.710938 244.394531 145.710938 244.816406 Z M 160.851562 251.957031 C 160.851562 252.378906 160.769531 252.78125 160.609375 253.171875 C 160.449219 253.558594 160.21875 253.902344 159.921875 254.203125 C 159.625 254.5 159.28125 254.726562 158.890625 254.890625 C 158.503906 255.050781 158.097656 255.128906 157.675781 255.128906 C 157.253906 255.128906 156.851562 255.050781 156.460938 254.890625 C 156.074219 254.726562 155.730469 254.5 155.433594 254.203125 C 155.136719 253.902344 154.90625 253.558594 154.746094 253.171875 C 154.582031 252.78125 154.503906 252.378906 154.503906 251.957031 L 154.503906 244.816406 C 154.503906 244.394531 154.582031 243.992188 154.746094 243.601562 C 154.90625 243.214844 155.136719 242.871094 155.433594 242.570312 C 155.730469 242.273438 156.074219 242.046875 156.460938 241.882812 C 156.851562 241.722656 157.253906 241.640625 157.675781 241.640625 C 158.097656 241.640625 158.503906 241.722656 158.890625 241.882812 C 159.28125 242.046875 159.625 242.273438 159.921875 242.570312 C 160.21875 242.871094 160.449219 243.214844 160.609375 243.601562 C 160.769531 243.992188 160.851562 244.394531 160.851562 244.816406 Z M 218.769531 257.0625 C 218.199219 257.0625 217.636719 257.007812 217.074219 256.894531 C 216.515625 256.785156 215.972656 256.621094 215.445312 256.402344 C 214.921875 256.183594 214.417969 255.914062 213.945312 255.597656 C 213.472656 255.28125 213.03125 254.921875 212.628906 254.519531 C 212.226562 254.117188 211.867188 253.675781 211.550781 253.203125 C 211.234375 252.730469 210.964844 252.230469 210.746094 251.703125 C 210.527344 251.175781 210.363281 250.632812 210.253906 250.074219 C 210.140625 249.511719 210.085938 248.949219 210.085938 248.378906 C 210.085938 247.808594 210.140625 247.242188 210.253906 246.683594 C 210.363281 246.125 210.527344 245.582031 210.746094 245.054688 C 210.964844 244.527344 211.234375 244.027344 211.550781 243.554688 C 211.867188 243.078125 212.226562 242.640625 212.628906 242.238281 C 213.03125 241.835938 213.472656 241.476562 213.945312 241.160156 C 214.417969 240.839844 214.921875 240.574219 215.445312 240.355469 C 215.972656 240.136719 216.515625 239.972656 217.074219 239.863281 C 217.636719 239.75 218.199219 239.695312 218.769531 239.695312 C 219.339844 239.695312 219.90625 239.75 220.464844 239.863281 C 221.023438 239.972656 221.566406 240.136719 222.09375 240.355469 C 222.621094 240.574219 223.121094 240.839844 223.59375 241.160156 C 224.070312 241.476562 224.507812 241.835938 224.910156 242.238281 C 225.3125 242.640625 225.675781 243.078125 225.992188 243.554688 C 226.308594 244.027344 226.574219 244.527344 226.792969 245.054688 C 227.011719 245.582031 227.175781 246.125 227.289062 246.683594 C 227.398438 247.242188 227.453125 247.808594 227.453125 248.378906 C 227.453125 248.949219 227.398438 249.515625 227.285156 250.074219 C 227.175781 250.636719 227.007812 251.179688 226.789062 251.707031 C 226.570312 252.234375 226.304688 252.734375 225.988281 253.210938 C 225.667969 253.683594 225.308594 254.121094 224.90625 254.527344 C 224.5 254.929688 224.0625 255.289062 223.585938 255.605469 C 223.109375 255.925781 222.609375 256.191406 222.082031 256.410156 C 221.554688 256.628906 221.011719 256.792969 220.449219 256.90625 C 219.890625 257.015625 219.324219 257.070312 218.753906 257.070312 Z M 242.140625 257.0625 C 241.570312 257.0625 241.003906 257.007812 240.445312 256.894531 C 239.886719 256.785156 239.34375 256.621094 238.816406 256.402344 C 238.289062 256.183594 237.789062 255.914062 237.316406 255.597656 C 236.839844 255.28125 236.402344 254.921875 236 254.519531 C 235.597656 254.117188 235.238281 253.675781 234.917969 253.203125 C 234.601562 252.730469 234.335938 252.230469 234.117188 251.703125 C 233.898438 251.175781 233.734375 250.632812 233.625 250.074219 C 233.511719 249.511719 233.457031 248.949219 233.457031 248.378906 C 233.457031 247.808594 233.511719 247.242188 233.625 246.683594 C 233.734375 246.125 233.898438 245.582031 234.117188 245.054688 C 234.335938 244.527344 234.601562 244.027344 234.917969 243.554688 C 235.238281 243.078125 235.597656 242.640625 236 242.238281 C 236.402344 241.835938 236.839844 241.476562 237.316406 241.15625 C 237.789062 240.839844 238.289062 240.574219 238.816406 240.355469 C 239.34375 240.136719 239.886719 239.972656 240.445312 239.863281 C 241.003906 239.75 241.570312 239.695312 242.140625 239.695312 C 242.710938 239.695312 243.273438 239.75 243.835938 239.863281 C 244.394531 239.972656 244.9375 240.136719 245.464844 240.355469 C 245.992188 240.574219 246.492188 240.839844 246.964844 241.160156 C 247.4375 241.476562 247.878906 241.835938 248.28125 242.238281 C 248.683594 242.640625 249.042969 243.078125 249.359375 243.554688 C 249.675781 244.027344 249.945312 244.527344 250.164062 245.054688 C 250.382812 245.582031 250.546875 246.125 250.65625 246.683594 C 250.769531 247.242188 250.824219 247.808594 250.824219 248.378906 C 250.824219 248.949219 250.769531 249.515625 250.65625 250.074219 C 250.546875 250.636719 250.378906 251.179688 250.160156 251.707031 C 249.941406 252.234375 249.675781 252.734375 249.355469 253.210938 C 249.039062 253.683594 248.679688 254.121094 248.273438 254.527344 C 247.871094 254.929688 247.429688 255.289062 246.957031 255.605469 C 246.480469 255.925781 245.980469 256.191406 245.453125 256.410156 C 244.925781 256.628906 244.382812 256.792969 243.820312 256.90625 C 243.261719 257.015625 242.695312 257.070312 242.125 257.070312 Z M 242.140625 257.0625 " fill-opacity="1" fill-rule="nonzero"/></g><path fill="#4ac15e" d="M 237.992188 213.339844 L 244.339844 213.339844 L 244.339844 225.378906 L 237.992188 225.378906 Z M 237.992188 213.339844 " fill-opacity="1" fill-rule="nonzero"/><path fill="#4ac15e" d="M 128.886719 213.339844 L 135.234375 213.339844 L 135.234375 225.378906 L 128.886719 225.378906 Z M 128.886719 213.339844 " fill-opacity="1" fill-rule="nonzero"/><g clip-path="url(#87fa4b3d23)"><path fill="#4ac15e" d="M 275.585938 165.304688 C 275.585938 167.199219 275.367188 169.070312 274.921875 170.914062 C 274.476562 172.753906 273.820312 174.519531 272.953125 176.207031 C 272.089844 177.894531 271.035156 179.457031 269.796875 180.890625 C 268.558594 182.328125 267.171875 183.597656 265.628906 184.703125 L 265.628906 179.664062 C 265.628906 178.855469 265.550781 178.050781 265.390625 177.257812 C 265.230469 176.460938 264.996094 175.691406 264.6875 174.941406 C 264.375 174.191406 263.996094 173.480469 263.546875 172.808594 C 263.09375 172.132812 262.582031 171.511719 262.011719 170.9375 C 261.4375 170.363281 260.8125 169.851562 260.140625 169.402344 C 259.464844 168.953125 258.753906 168.570312 258.007812 168.261719 C 257.257812 167.949219 256.488281 167.714844 255.691406 167.558594 C 254.898438 167.398438 254.09375 167.320312 253.285156 167.320312 L 121.75 167.320312 C 120.941406 167.320312 120.136719 167.398438 119.34375 167.558594 C 118.546875 167.714844 117.777344 167.949219 117.027344 168.261719 C 116.277344 168.570312 115.566406 168.953125 114.894531 169.402344 C 114.21875 169.851562 113.597656 170.363281 113.023438 170.9375 C 112.449219 171.511719 111.9375 172.132812 111.488281 172.808594 C 111.039062 173.480469 110.65625 174.191406 110.347656 174.941406 C 110.035156 175.691406 109.800781 176.460938 109.644531 177.257812 C 109.484375 178.050781 109.40625 178.855469 109.40625 179.664062 L 109.40625 184.714844 C 108.816406 184.292969 108.246094 183.84375 107.699219 183.371094 C 107.148438 182.898438 106.625 182.402344 106.121094 181.878906 C 105.617188 181.359375 105.136719 180.816406 104.683594 180.25 C 104.230469 179.683594 103.804688 179.101562 103.402344 178.496094 C 103 177.890625 102.628906 177.269531 102.285156 176.632812 C 101.941406 175.996094 101.628906 175.34375 101.34375 174.675781 C 101.058594 174.011719 100.804688 173.332031 100.582031 172.644531 C 100.359375 171.953125 100.167969 171.253906 100.007812 170.546875 C 99.847656 169.839844 99.722656 169.128906 99.628906 168.410156 C 99.53125 167.691406 99.472656 166.96875 99.441406 166.246094 C 99.414062 165.523438 99.417969 164.796875 99.457031 164.074219 C 99.492188 163.351562 99.5625 162.628906 99.667969 161.914062 C 99.769531 161.195312 99.902344 160.484375 100.070312 159.777344 C 100.238281 159.074219 100.4375 158.378906 100.671875 157.691406 C 100.902344 157.003906 101.164062 156.328125 101.457031 155.667969 C 101.746094 155.003906 102.070312 154.355469 102.421875 153.722656 C 102.773438 153.085938 103.152344 152.472656 103.5625 151.871094 C 103.96875 151.273438 104.402344 150.695312 104.863281 150.132812 C 105.324219 149.574219 105.808594 149.035156 106.316406 148.519531 C 106.828125 148.007812 107.359375 147.515625 107.914062 147.046875 C 108.46875 146.582031 109.042969 146.140625 109.636719 145.726562 C 110.230469 145.3125 110.84375 144.925781 111.472656 144.566406 C 112.101562 144.207031 112.746094 143.875 113.40625 143.574219 C 114.066406 143.277344 114.738281 143.007812 115.421875 142.765625 C 116.105469 142.527344 116.800781 142.320312 117.503906 142.144531 C 118.203125 141.96875 118.914062 141.824219 119.628906 141.714844 C 120.347656 141.601562 121.066406 141.523438 121.789062 141.480469 C 122.511719 141.433594 123.238281 141.421875 123.960938 141.441406 C 124.6875 141.460938 125.40625 141.515625 126.128906 141.601562 C 126.847656 141.6875 127.5625 141.804688 128.269531 141.957031 C 128.980469 142.105469 129.679688 142.289062 130.371094 142.503906 C 131.0625 142.71875 131.746094 142.964844 132.414062 143.242188 C 132.640625 143.335938 132.875 143.402344 133.117188 143.441406 C 133.359375 143.480469 133.605469 143.492188 133.847656 143.472656 C 134.09375 143.457031 134.332031 143.410156 134.566406 143.339844 C 134.800781 143.265625 135.027344 143.167969 135.238281 143.042969 C 135.449219 142.917969 135.644531 142.769531 135.820312 142.601562 C 135.996094 142.429688 136.152344 142.242188 136.285156 142.035156 C 136.421875 141.828125 136.527344 141.613281 136.613281 141.378906 C 136.695312 141.148438 136.75 140.910156 136.777344 140.667969 C 136.875 139.808594 137.019531 138.960938 137.210938 138.121094 C 137.402344 137.277344 137.636719 136.449219 137.917969 135.632812 C 138.195312 134.816406 138.519531 134.019531 138.886719 133.238281 C 139.253906 132.457031 139.660156 131.699219 140.109375 130.960938 C 140.558594 130.222656 141.046875 129.515625 141.574219 128.832031 C 142.101562 128.144531 142.660156 127.492188 143.257812 126.871094 C 143.855469 126.246094 144.484375 125.660156 145.144531 125.105469 C 145.808594 124.550781 146.496094 124.03125 147.214844 123.550781 C 147.929688 123.074219 148.671875 122.632812 149.4375 122.234375 C 150.199219 121.835938 150.984375 121.476562 151.789062 121.164062 C 152.59375 120.847656 153.410156 120.578125 154.242188 120.351562 C 155.074219 120.128906 155.917969 119.949219 156.769531 119.8125 C 157.625 119.679688 158.480469 119.589844 159.34375 119.550781 C 160.203125 119.507812 161.066406 119.515625 161.925781 119.566406 C 162.789062 119.621094 163.644531 119.71875 164.496094 119.863281 C 165.34375 120.007812 166.183594 120.199219 167.015625 120.433594 C 167.347656 120.527344 167.6875 120.566406 168.035156 120.546875 C 168.382812 120.53125 168.714844 120.457031 169.039062 120.332031 C 169.359375 120.203125 169.652344 120.027344 169.917969 119.804688 C 170.183594 119.578125 170.40625 119.320312 170.585938 119.023438 C 171.414062 117.636719 172.402344 116.382812 173.558594 115.253906 C 174.714844 114.128906 175.992188 113.167969 177.398438 112.375 C 178.804688 111.582031 180.285156 110.980469 181.847656 110.574219 C 183.40625 110.167969 184.996094 109.96875 186.609375 109.972656 C 188.261719 109.976562 189.882812 110.195312 191.480469 110.625 C 193.074219 111.058594 194.585938 111.6875 196.011719 112.519531 C 197.441406 113.347656 198.738281 114.351562 199.898438 115.523438 C 201.0625 116.695312 202.054688 118 202.875 119.433594 C 203.058594 119.757812 203.292969 120.039062 203.574219 120.28125 C 203.855469 120.523438 204.171875 120.707031 204.519531 120.835938 C 204.867188 120.96875 205.226562 121.035156 205.597656 121.039062 C 205.972656 121.042969 206.332031 120.984375 206.683594 120.859375 C 207.523438 120.566406 208.378906 120.320312 209.25 120.121094 C 210.121094 119.921875 210.996094 119.773438 211.882812 119.671875 C 212.769531 119.574219 213.660156 119.523438 214.550781 119.523438 C 215.445312 119.523438 216.332031 119.570312 217.21875 119.671875 C 218.105469 119.769531 218.984375 119.917969 219.851562 120.117188 C 220.722656 120.316406 221.578125 120.5625 222.421875 120.855469 C 223.261719 121.148438 224.085938 121.488281 224.890625 121.875 C 225.695312 122.261719 226.476562 122.691406 227.230469 123.164062 C 227.988281 123.636719 228.714844 124.152344 229.410156 124.707031 C 230.109375 125.261719 230.773438 125.855469 231.40625 126.484375 C 232.039062 127.113281 232.632812 127.777344 233.191406 128.472656 C 233.746094 129.171875 234.265625 129.894531 234.738281 130.652344 C 235.214844 131.40625 235.648438 132.183594 236.039062 132.988281 C 236.425781 133.789062 236.769531 134.613281 237.066406 135.453125 C 237.363281 136.292969 237.609375 137.148438 237.808594 138.019531 C 238.011719 138.886719 238.164062 139.765625 238.265625 140.652344 C 238.292969 140.894531 238.347656 141.132812 238.429688 141.363281 C 238.511719 141.59375 238.621094 141.8125 238.753906 142.019531 C 238.890625 142.226562 239.042969 142.414062 239.222656 142.582031 C 239.398438 142.753906 239.59375 142.902344 239.804688 143.027344 C 240.015625 143.152344 240.238281 143.25 240.472656 143.324219 C 240.707031 143.394531 240.949219 143.441406 241.191406 143.457031 C 241.4375 143.476562 241.683594 143.464844 241.925781 143.425781 C 242.167969 143.386719 242.402344 143.320312 242.628906 143.226562 C 243.078125 143.039062 243.535156 142.867188 243.996094 142.710938 C 244.460938 142.554688 244.925781 142.410156 245.394531 142.28125 C 245.867188 142.152344 246.339844 142.035156 246.816406 141.9375 C 247.296875 141.835938 247.777344 141.75 248.257812 141.679688 C 248.742188 141.609375 249.226562 141.554688 249.710938 141.511719 C 250.199219 141.472656 250.683594 141.445312 251.171875 141.433594 C 251.660156 141.421875 252.148438 141.425781 252.636719 141.445312 C 253.125 141.464844 253.609375 141.5 254.09375 141.546875 C 254.582031 141.59375 255.0625 141.660156 255.546875 141.738281 C 256.027344 141.816406 256.507812 141.910156 256.980469 142.015625 C 257.457031 142.125 257.929688 142.246094 258.398438 142.382812 C 258.867188 142.519531 259.332031 142.667969 259.789062 142.835938 C 260.25 143 260.703125 143.179688 261.152344 143.371094 C 261.597656 143.5625 262.039062 143.769531 262.476562 143.992188 C 262.910156 144.210938 263.339844 144.445312 263.761719 144.691406 C 264.183594 144.9375 264.597656 145.195312 265 145.464844 C 265.40625 145.738281 265.804688 146.023438 266.191406 146.316406 C 266.578125 146.613281 266.957031 146.921875 267.328125 147.238281 C 267.695312 147.558594 268.054688 147.890625 268.402344 148.230469 C 268.753906 148.570312 269.089844 148.921875 269.417969 149.285156 C 269.746094 149.644531 270.0625 150.019531 270.367188 150.398438 C 270.671875 150.78125 270.964844 151.171875 271.242188 151.570312 C 271.523438 151.96875 271.792969 152.375 272.046875 152.792969 C 272.304688 153.207031 272.546875 153.628906 272.777344 154.058594 C 273.007812 154.492188 273.222656 154.929688 273.425781 155.371094 C 273.628906 155.816406 273.816406 156.265625 273.992188 156.71875 C 274.167969 157.175781 274.328125 157.636719 274.476562 158.101562 C 274.625 158.566406 274.757812 159.035156 274.875 159.507812 C 274.992188 159.980469 275.097656 160.457031 275.1875 160.9375 C 275.273438 161.417969 275.347656 161.898438 275.410156 162.382812 C 275.46875 162.867188 275.511719 163.355469 275.542969 163.839844 C 275.574219 164.328125 275.585938 164.816406 275.585938 165.304688 Z M 275.585938 165.304688 " fill-opacity="1" fill-rule="nonzero"/></g><path fill="#4ac15e" d="M 221.089844 190.332031 C 221.089844 190.640625 221.03125 190.941406 220.914062 191.226562 C 220.792969 191.511719 220.625 191.765625 220.40625 191.984375 C 220.1875 192.203125 219.933594 192.371094 219.648438 192.492188 C 219.363281 192.609375 219.0625 192.667969 218.753906 192.667969 C 218.445312 192.667969 218.144531 192.609375 217.859375 192.492188 C 217.574219 192.371094 217.320312 192.203125 217.101562 191.984375 C 216.882812 191.765625 216.714844 191.511719 216.59375 191.226562 C 216.476562 190.941406 216.417969 190.640625 216.417969 190.332031 C 216.417969 190.023438 216.476562 189.722656 216.59375 189.4375 C 216.714844 189.152344 216.882812 188.898438 217.101562 188.679688 C 217.320312 188.460938 217.574219 188.292969 217.859375 188.171875 C 218.144531 188.054688 218.445312 187.996094 218.753906 187.996094 C 219.0625 187.996094 219.363281 188.054688 219.648438 188.171875 C 219.933594 188.292969 220.1875 188.460938 220.40625 188.679688 C 220.625 188.898438 220.792969 189.152344 220.914062 189.4375 C 221.03125 189.722656 221.089844 190.023438 221.089844 190.332031 Z M 221.089844 190.332031 " fill-opacity="1" fill-rule="nonzero"/><path fill="#4ac15e" d="M 244.460938 190.332031 C 244.460938 190.640625 244.402344 190.941406 244.285156 191.226562 C 244.164062 191.511719 243.996094 191.765625 243.777344 191.984375 C 243.558594 192.203125 243.304688 192.371094 243.019531 192.492188 C 242.734375 192.609375 242.433594 192.667969 242.125 192.667969 C 241.816406 192.667969 241.515625 192.609375 241.230469 192.492188 C 240.945312 192.371094 240.691406 192.203125 240.472656 191.984375 C 240.253906 191.765625 240.085938 191.511719 239.964844 191.226562 C 239.847656 190.941406 239.789062 190.640625 239.789062 190.332031 C 239.789062 190.023438 239.847656 189.722656 239.964844 189.4375 C 240.085938 189.152344 240.253906 188.898438 240.472656 188.679688 C 240.691406 188.460938 240.945312 188.292969 241.230469 188.171875 C 241.515625 188.054688 241.816406 187.996094 242.125 187.996094 C 242.433594 187.996094 242.730469 188.054688 243.015625 188.175781 C 243.304688 188.292969 243.554688 188.464844 243.773438 188.683594 C 243.992188 188.902344 244.164062 189.152344 244.28125 189.4375 C 244.398438 189.726562 244.460938 190.023438 244.460938 190.332031 Z M 244.460938 190.332031 " fill-opacity="1" fill-rule="nonzero"/><path fill="#4ac15e" d="M 221.089844 248.386719 C 221.089844 248.695312 221.03125 248.996094 220.914062 249.28125 C 220.792969 249.566406 220.625 249.820312 220.40625 250.039062 C 220.1875 250.257812 219.933594 250.425781 219.648438 250.546875 C 219.363281 250.664062 219.0625 250.722656 218.753906 250.722656 C 218.445312 250.722656 218.144531 250.664062 217.859375 250.546875 C 217.574219 250.425781 217.320312 250.257812 217.101562 250.039062 C 216.882812 249.820312 216.714844 249.566406 216.59375 249.28125 C 216.476562 248.996094 216.417969 248.695312 216.417969 248.386719 C 216.417969 248.078125 216.476562 247.777344 216.59375 247.492188 C 216.714844 247.207031 216.882812 246.953125 217.101562 246.734375 C 217.320312 246.515625 217.574219 246.347656 217.859375 246.226562 C 218.144531 246.109375 218.445312 246.050781 218.753906 246.050781 C 219.0625 246.050781 219.363281 246.109375 219.648438 246.226562 C 219.933594 246.347656 220.1875 246.515625 220.40625 246.734375 C 220.625 246.953125 220.792969 247.207031 220.914062 247.492188 C 221.03125 247.777344 221.089844 248.078125 221.089844 248.386719 Z M 221.089844 248.386719 " fill-opacity="1" fill-rule="nonzero"/><path fill="#4ac15e" d="M 244.460938 248.386719 C 244.460938 248.695312 244.402344 248.996094 244.285156 249.28125 C 244.164062 249.566406 243.996094 249.820312 243.777344 250.039062 C 243.558594 250.257812 243.304688 250.425781 243.019531 250.546875 C 242.734375 250.664062 242.433594 250.722656 242.125 250.722656 C 241.816406 250.722656 241.515625 250.664062 241.230469 250.546875 C 240.945312 250.425781 240.691406 250.257812 240.472656 250.039062 C 240.253906 249.820312 240.085938 249.566406 239.964844 249.28125 C 239.847656 248.996094 239.789062 248.695312 239.789062 248.386719 C 239.789062 248.078125 239.847656 247.777344 239.964844 247.492188 C 240.085938 247.207031 240.253906 246.953125 240.472656 246.734375 C 240.691406 246.515625 240.945312 246.347656 241.230469 246.226562 C 241.515625 246.109375 241.816406 246.050781 242.125 246.050781 C 242.433594 246.050781 242.730469 246.109375 243.019531 246.230469 C 243.304688 246.347656 243.558594 246.515625 243.777344 246.734375 C 243.996094 246.953125 244.164062 247.207031 244.28125 247.492188 C 244.402344 247.777344 244.460938 248.078125 244.460938 248.386719 Z M 244.460938 248.386719 " fill-opacity="1" fill-rule="nonzero"/></svg>