<svg xmlns="http://www.w3.org/2000/svg" xmlns:xlink="http://www.w3.org/1999/xlink" width="500" zoomAndPan="magnify" viewBox="0 0 375 374.999991" height="500" preserveAspectRatio="xMidYMid meet" version="1.0"><defs><clipPath id="ab717744f4"><path d="M 99.40625 165 L 154 165 L 154 223 L 99.40625 223 Z M 99.40625 165 " clip-rule="nonzero"/></clipPath><clipPath id="b4dcbf7c1b"><path d="M 260 223 L 275.65625 223 L 275.65625 260.824219 L 260 260.824219 Z M 260 223 " clip-rule="nonzero"/></clipPath></defs><path fill="#4ac15e" d="M 104.882812 186.378906 L 121.316406 218.324219 L 124.875 216.492188 L 108.492188 184.523438 Z M 104.882812 186.378906 " fill-opacity="1" fill-rule="nonzero"/><path fill="#4ac15e" d="M 112.199219 182.613281 L 111.050781 183.207031 L 127.433594 215.175781 L 137.167969 210.164062 L 129.105469 192.972656 Z M 112.199219 182.613281 " fill-opacity="1" fill-rule="nonzero"/><path fill="#4ac15e" d="M 226.246094 136.75 L 216.367188 119.644531 C 214.929688 117.152344 212.609375 115.371094 209.828125 114.625 C 207.050781 113.882812 204.144531 114.261719 201.652344 115.703125 L 112.273438 167.304688 L 140.234375 184.441406 Z M 226.246094 136.75 " fill-opacity="1" fill-rule="nonzero"/><g clip-path="url(#ab717744f4)"><path fill="#4ac15e" d="M 139.078125 187.109375 L 105.304688 166.410156 C 104.71875 166.054688 104.054688 165.875 103.382812 165.875 C 102.808594 165.875 102.230469 166.007812 101.707031 166.277344 C 100.515625 166.894531 99.769531 168.0625 99.722656 169.402344 C 99.671875 170.746094 100.328125 171.964844 101.472656 172.664062 L 130.980469 190.746094 C 131.21875 190.894531 131.410156 191.105469 131.53125 191.363281 L 145.171875 220.449219 C 145.683594 221.53125 146.585938 222.339844 147.722656 222.714844 C 148.859375 223.097656 150.066406 222.992188 151.117188 222.429688 C 153.148438 221.34375 153.972656 218.863281 152.996094 216.777344 Z M 139.078125 187.109375 " fill-opacity="1" fill-rule="nonzero"/></g><path fill="#4ac15e" d="M 212.613281 226.679688 L 206.421875 216.472656 L 198.109375 221.269531 L 204.5625 232.871094 C 209.847656 242.371094 219.882812 248.269531 230.75 248.269531 L 257.125 248.269531 L 257.125 237.875 L 232.484375 237.875 C 224.410156 237.875 216.796875 233.585938 212.613281 226.679688 Z M 212.613281 226.679688 " fill-opacity="1" fill-rule="nonzero"/><path fill="#4ac15e" d="M 210.292969 207.945312 C 210.898438 205.683594 210.585938 203.320312 209.414062 201.289062 L 202.601562 189.484375 L 176.644531 204.46875 L 183.460938 216.273438 C 185.878906 220.464844 191.257812 221.902344 195.445312 219.484375 L 206.203125 213.273438 C 208.234375 212.101562 209.683594 210.210938 210.292969 207.945312 Z M 210.292969 207.945312 " fill-opacity="1" fill-rule="nonzero"/><g clip-path="url(#b4dcbf7c1b)"><path fill="#4ac15e" d="M 272.121094 223.777344 L 263.15625 223.777344 C 261.417969 223.777344 260.007812 225.191406 260.007812 226.929688 L 260.007812 258.113281 C 260.007812 259.851562 261.417969 261.265625 263.15625 261.265625 L 272.121094 261.265625 C 273.859375 261.265625 275.273438 259.851562 275.273438 258.113281 L 275.273438 226.929688 C 275.273438 225.191406 273.859375 223.777344 272.121094 223.777344 Z M 272.121094 223.777344 " fill-opacity="1" fill-rule="nonzero"/></g><path fill="#4ac15e" d="M 202.40625 186.269531 L 232.402344 168.953125 C 234.890625 167.515625 236.675781 165.191406 237.417969 162.414062 C 238.164062 159.636719 237.78125 156.730469 236.34375 154.242188 L 227.683594 139.242188 L 142.074219 186.714844 L 154.769531 213.777344 Z M 155.851562 198.226562 C 153.332031 198.226562 151.289062 196.183594 151.289062 193.667969 C 151.289062 191.148438 153.332031 189.109375 155.851562 189.109375 C 158.367188 189.109375 160.410156 191.152344 160.410156 193.667969 C 160.410156 196.1875 158.367188 198.226562 155.851562 198.226562 Z M 155.851562 198.226562 " fill-opacity="1" fill-rule="nonzero"/></svg>